<?xml version="1.0" standalone="no"?><!DOCTYPE svg PUBLIC "-//W3C//DTD SVG 1.1//EN" "http://www.w3.org/Graphics/SVG/1.1/DTD/svg11.dtd"><svg t="1621865878260" class="icon" viewBox="0 0 1592 1024" version="1.1" xmlns="http://www.w3.org/2000/svg" p-id="8176" xmlns:xlink="http://www.w3.org/1999/xlink" width="310.9375" height="200"><defs><style type="text/css"></style></defs><path d="M579.182818 763.817108c30.830592-27.872675 55.176521-48.919389 78.271023-71.103764C878.501222 479.857117 1099.8899 267.228422 1320.027153 53.575833c53.47003-51.649774 109.215381-77.702193 174.517077-23.663333 54.835223 45.165111 46.644069 108.077721-21.615544 174.062014-260.865488 252.560569-522.641105 504.893605-784.530487 756.657812-82.139068 78.953619-126.735348 79.408683-207.395458 2.616618C338.795213 827.52608 198.18041 689.98296 55.859117 554.260095c-53.697562-51.19471-80.887642-105.006038-25.028525-168.14618 46.871601-52.9012 112.287064-45.165111 180.546677 20.364118 121.957176 117.179003 242.776691 235.723197 367.805549 357.339075z" fill="#5CCB42" p-id="8177"></path></svg>